<svg xmlns="http://www.w3.org/2000/svg" viewBox="0 0 32 32" width="32" height="32">
  <defs>
    <linearGradient id="lotusGradient" x1="0%" y1="0%" x2="100%" y2="100%">
      <stop offset="0%" style="stop-color:#FF6B6B;stop-opacity:1" />
      <stop offset="50%" style="stop-color:#4ECDC4;stop-opacity:1" />
      <stop offset="100%" style="stop-color:#45B7D1;stop-opacity:1" />
    </linearGradient>
    <linearGradient id="penGradient" x1="0%" y1="0%" x2="100%" y2="100%">
      <stop offset="0%" style="stop-color:#2C3E50;stop-opacity:1" />
      <stop offset="100%" style="stop-color:#34495E;stop-opacity:1" />
    </linearGradient>
  </defs>
  
  <!-- Background circle -->
  <circle cx="16" cy="16" r="15" fill="url(#lotusGradient)" stroke="#fff" stroke-width="1"/>
  
  <!-- Lotus petals -->
  <g transform="translate(16, 16)">
    <!-- Outer petals -->
    <path d="M-8,-2 Q-4,-8 0,-2 Q4,-8 8,-2 Q4,4 0,-2 Q-4,4 -8,-2" fill="#fff" opacity="0.9"/>
    <path d="M-2,-8 Q-8,-4 -2,0 Q-8,4 -2,8 Q4,4 0,0 Q4,-4 -2,-8" fill="#fff" opacity="0.9"/>
    <path d="M2,-8 Q8,-4 2,0 Q8,4 2,8 Q-4,4 0,0 Q-4,-4 2,-8" fill="#fff" opacity="0.9"/>
    <path d="M8,-2 Q4,4 0,-2 Q-4,4 -8,-2 Q-4,-8 0,-2 Q4,-8 8,-2" fill="#fff" opacity="0.9"/>
    
    <!-- Inner petals -->
    <path d="M-4,-1 Q-2,-4 0,-1 Q2,-4 4,-1 Q2,2 0,-1 Q-2,2 -4,-1" fill="#FF6B6B" opacity="0.8"/>
    <path d="M-1,-4 Q-4,-2 -1,0 Q-4,2 -1,4 Q2,2 0,0 Q2,-2 -1,-4" fill="#4ECDC4" opacity="0.8"/>
    <path d="M1,-4 Q4,-2 1,0 Q4,2 1,4 Q-2,2 0,0 Q-2,-2 1,-4" fill="#45B7D1" opacity="0.8"/>
    <path d="M4,-1 Q2,2 0,-1 Q-2,2 -4,-1 Q-2,-4 0,-1 Q2,-4 4,-1" fill="#FF6B6B" opacity="0.8"/>
  </g>
  
  <!-- Pen/Quill -->
  <g transform="translate(16, 16) rotate(45)">
    <!-- Pen body -->
    <rect x="-1" y="-8" width="2" height="12" fill="url(#penGradient)" rx="1"/>
    <!-- Pen tip -->
    <path d="M-1,-8 L1,-8 L0,-12 Z" fill="#2C3E50"/>
    <!-- Pen feather -->
    <path d="M-1,4 Q-3,2 -1,0 Q-3,-2 -1,-4" fill="#95A5A6" opacity="0.7"/>
    <path d="M1,4 Q3,2 1,0 Q3,-2 1,-4" fill="#95A5A6" opacity="0.7"/>
  </g>
  
  <!-- Center dot -->
  <circle cx="16" cy="16" r="2" fill="#2C3E50"/>
</svg> 